<svg width="16" height="19" viewBox="0 0 16 19" fill="none" xmlns="http://www.w3.org/2000/svg">
<path opacity="0.3" d="M7.90283 1.67725C8.37891 1.67725 8.73779 1.31104 8.73779 0.834961C8.73779 0.373535 8.36426 0 7.90283 0C7.44141 0 7.06055 0.380859 7.06055 0.834961C7.06055 1.30371 7.43408 1.67725 7.90283 1.67725ZM4.36523 3.71338C4.84131 3.71338 5.20752 3.35449 5.20752 2.87842C5.20752 2.40967 4.83398 2.03613 4.36523 2.03613C3.91113 2.03613 3.53027 2.41699 3.53027 2.87842C3.53027 3.33984 3.90381 3.71338 4.36523 3.71338ZM11.4331 3.71338C11.9092 3.71338 12.2681 3.35449 12.2681 2.87842C12.2681 2.40967 11.9019 2.03613 11.4331 2.03613C10.979 2.03613 10.5981 2.41699 10.5981 2.87842C10.5981 3.33984 10.9644 3.71338 11.4331 3.71338ZM7.90283 6.05713C8.52539 6.05713 9.01611 5.56641 9.01611 4.94385C9.01611 4.32861 8.51807 3.82324 7.90283 3.82324C7.29492 3.82324 6.78223 4.33594 6.78223 4.94385C6.78223 5.55908 7.2876 6.05713 7.90283 6.05713ZM0.834961 5.77881C1.31104 5.77881 1.66992 5.41992 1.66992 4.94385C1.66992 4.4751 1.29639 4.10156 0.834961 4.10156C0.380859 4.10156 0 4.48242 0 4.94385C0 5.40527 0.366211 5.77881 0.834961 5.77881ZM14.9414 5.77881C15.4102 5.77881 15.7764 5.4126 15.7764 4.94385C15.7764 4.4751 15.4028 4.10156 14.9414 4.10156C14.48 4.10156 14.0991 4.48242 14.0991 4.94385C14.0991 5.40527 14.4727 5.77881 14.9414 5.77881ZM4.36523 8.10791C4.99512 8.10791 5.48584 7.61719 5.48584 6.9873C5.48584 6.37207 4.98047 5.8667 4.36523 5.8667C3.76465 5.8667 3.25195 6.37939 3.25195 6.9873C3.25195 7.60254 3.75 8.10791 4.36523 8.10791ZM11.4331 8.10791C12.063 8.10791 12.5537 7.61719 12.5537 6.9873C12.5537 6.37207 12.0483 5.8667 11.4331 5.8667C10.8252 5.8667 10.3125 6.37939 10.3125 6.9873C10.3125 7.60254 10.8179 8.10791 11.4331 8.10791ZM7.90283 10.3491C8.62793 10.3491 9.20654 9.77051 9.20654 9.04541C9.20654 8.32764 8.62061 7.7417 7.90283 7.7417C7.19238 7.7417 6.59912 8.33496 6.59912 9.04541C6.59912 9.76318 7.18506 10.3491 7.90283 10.3491ZM0.834961 9.88037C1.30371 9.88037 1.66992 9.51416 1.66992 9.04541C1.66992 8.57666 1.29639 8.21045 0.834961 8.21045C0.380859 8.21045 0 8.58398 0 9.04541C0 9.50684 0.366211 9.88037 0.834961 9.88037ZM14.9414 9.88037C15.4102 9.88037 15.7764 9.52148 15.7764 9.04541C15.7764 8.57666 15.4028 8.21045 14.9414 8.21045C14.48 8.21045 14.0991 8.59131 14.0991 9.04541C14.0991 9.51416 14.4727 9.88037 14.9414 9.88037ZM4.36523 12.2168C4.99512 12.2168 5.48584 11.7261 5.48584 11.1035C5.48584 10.481 4.98047 9.98291 4.36523 9.98291C3.75732 9.98291 3.25195 10.4956 3.25195 11.1035C3.25195 11.7188 3.75 12.2168 4.36523 12.2168ZM11.4331 12.2168C12.0557 12.2168 12.5537 11.7261 12.5537 11.1035C12.5537 10.481 12.0483 9.98291 11.4331 9.98291C10.8252 9.98291 10.3125 10.4956 10.3125 11.1035C10.3125 11.7188 10.8179 12.2168 11.4331 12.2168ZM7.90283 14.2676C8.52539 14.2676 9.01611 13.7695 9.01611 13.147C9.01611 12.5317 8.51807 12.0337 7.90283 12.0337C7.29492 12.0337 6.78223 12.5391 6.78223 13.147C6.78223 13.7622 7.2876 14.2676 7.90283 14.2676ZM0.834961 13.9819C1.31104 13.9819 1.66992 13.623 1.66992 13.147C1.66992 12.6782 1.30371 12.312 0.834961 12.312C0.380859 12.312 0 12.6929 0 13.147C0 13.6157 0.366211 13.9819 0.834961 13.9819ZM14.9414 13.9819C15.4175 13.9819 15.7764 13.623 15.7764 13.147C15.7764 12.6855 15.4028 12.312 14.9414 12.312C14.48 12.312 14.0991 12.6929 14.0991 13.147C14.0991 13.6157 14.4727 13.9819 14.9414 13.9819ZM4.36523 16.0547C4.84131 16.0547 5.20752 15.6885 5.20752 15.2124C5.20752 14.7437 4.83398 14.3774 4.36523 14.3774C3.91113 14.3774 3.53027 14.7583 3.53027 15.2124C3.53027 15.6812 3.90381 16.0547 4.36523 16.0547ZM11.4331 16.0547C11.9092 16.0547 12.2681 15.6885 12.2681 15.2124C12.2681 14.7437 11.9019 14.3774 11.4331 14.3774C10.979 14.3774 10.5981 14.7583 10.5981 15.2124C10.5981 15.6812 10.9644 16.0547 11.4331 16.0547ZM7.90283 18.0908C8.37158 18.0908 8.73779 17.7246 8.73779 17.2485C8.73779 16.7871 8.36426 16.4136 7.90283 16.4136C7.44141 16.4136 7.06055 16.7944 7.06055 17.2485C7.06055 17.7173 7.43408 18.0908 7.90283 18.0908Z" fill="white"/>
</svg>
