<svg width="24" height="17" viewBox="0 0 24 17" fill="none" xmlns="http://www.w3.org/2000/svg">
<path d="M1.5835 3.15576C2.44824 3.15576 3.15576 2.44824 3.15576 1.57227C3.15576 0.70752 2.44824 0 1.5835 0C0.70752 0 0 0.70752 0 1.57227C0 2.44824 0.70752 3.15576 1.5835 3.15576ZM6.82812 2.63916H22.0903C22.6855 2.63916 23.1572 2.16748 23.1572 1.57227C23.1572 0.977051 22.6855 0.505371 22.0903 0.505371H6.82812C6.23291 0.505371 5.76123 0.977051 5.76123 1.57227C5.76123 2.16748 6.23291 2.63916 6.82812 2.63916ZM1.5835 10.0513C2.44824 10.0513 3.15576 9.34375 3.15576 8.46777C3.15576 7.60303 2.44824 6.89551 1.5835 6.89551C0.70752 6.89551 0 7.60303 0 8.46777C0 9.34375 0.70752 10.0513 1.5835 10.0513ZM6.82812 9.53467H22.0903C22.6855 9.53467 23.1572 9.06299 23.1572 8.46777C23.1572 7.87256 22.6855 7.40088 22.0903 7.40088H6.82812C6.23291 7.40088 5.76123 7.87256 5.76123 8.46777C5.76123 9.06299 6.23291 9.53467 6.82812 9.53467ZM1.5835 16.9468C2.44824 16.9468 3.15576 16.2393 3.15576 15.3633C3.15576 14.4985 2.44824 13.791 1.5835 13.791C0.70752 13.791 0 14.4985 0 15.3633C0 16.2393 0.70752 16.9468 1.5835 16.9468ZM6.82812 16.4302H22.0903C22.6855 16.4302 23.1572 15.9585 23.1572 15.3633C23.1572 14.7681 22.6855 14.2964 22.0903 14.2964H6.82812C6.23291 14.2964 5.76123 14.7681 5.76123 15.3633C5.76123 15.9585 6.23291 16.4302 6.82812 16.4302Z" fill="white"/>
</svg>
