<svg width="16" height="13" viewBox="0 0 16 13" fill="none" xmlns="http://www.w3.org/2000/svg">
<path opacity="0.3" d="M3.13477 4.10889C6.44531 4.10889 8.20312 1.34033 11.2354 1.34033C11.9531 1.34033 12.5684 1.50146 13.3008 1.91895C13.645 2.1167 13.9819 1.99219 14.165 1.73584C14.3848 1.42822 14.3408 0.974121 13.894 0.710449C13.0591 0.234375 12.1875 0 11.2354 0C7.88086 0 6.1377 2.76855 3.13477 2.76855C2.42432 2.76855 1.80176 2.60742 1.07666 2.18262C0.732422 1.99219 0.380859 2.1167 0.205078 2.38037C0 2.69531 0.0439453 3.14209 0.483398 3.39111C1.31836 3.87451 2.18994 4.10889 3.13477 4.10889ZM12.7588 12.9492C14.5605 12.9492 15.9961 11.543 15.9961 9.78516C15.9961 8.81836 15.5127 7.86621 15.1099 7.11182L13.4839 4.07959C13.3008 3.73535 13.103 3.58154 12.7588 3.58154C12.4146 3.58154 12.2241 3.74268 12.041 4.07959L10.415 7.11182C10.0122 7.86621 9.52881 8.81836 9.52881 9.78516C9.52881 11.543 10.9717 12.9492 12.7588 12.9492ZM3.14941 8.03467C5.98389 8.03467 7.7124 5.93262 10.1294 5.43457C10.3931 4.93652 10.6714 4.43848 10.9351 3.94043C7.70508 4.12354 6.07178 6.69434 3.14941 6.69434C2.43896 6.69434 1.81641 6.5332 1.08398 6.11572C0.739746 5.91797 0.395508 6.04248 0.219727 6.30615C0.0146484 6.62109 0.0585938 7.06787 0.490723 7.31689C1.32568 7.80029 2.19727 8.03467 3.14941 8.03467ZM12.7588 11.8359C11.5869 11.8359 10.6421 10.9277 10.6421 9.78516C10.6421 9.08203 11.0083 8.39355 11.4111 7.63916L12.6929 5.25146C12.7295 5.17822 12.8027 5.17822 12.8394 5.25146L14.1138 7.63916C14.5093 8.39355 14.8828 9.08203 14.8828 9.78516C14.8828 10.9277 13.9453 11.8359 12.7588 11.8359ZM3.13477 11.9604C5.32471 11.9604 6.84814 10.7153 8.53271 9.91699C8.48145 9.51416 8.56934 8.89893 8.72314 8.40088C6.79688 9.19189 5.29541 10.6201 3.13477 10.6201C2.42432 10.6201 1.80176 10.459 1.07666 10.0415C0.732422 9.84375 0.380859 9.96826 0.205078 10.2393C0 10.5469 0.0439453 10.9937 0.483398 11.25C1.31836 11.7261 2.18994 11.9604 3.13477 11.9604Z" fill="white"/>
</svg>
