<svg width="19" height="19" viewBox="0 0 19 19" fill="none" xmlns="http://www.w3.org/2000/svg">
<path opacity="0.5" d="M0 7.40332C0 11.4854 3.32129 14.8066 7.40332 14.8066C9.01758 14.8066 10.4927 14.2871 11.708 13.415L16.2725 17.9888C16.4858 18.2021 16.7642 18.3042 17.061 18.3042C17.6919 18.3042 18.1279 17.8311 18.1279 17.2095C18.1279 16.9126 18.0166 16.6436 17.8218 16.4487L13.2852 11.8843C14.2407 10.6411 14.8066 9.0918 14.8066 7.40332C14.8066 3.32129 11.4854 0 7.40332 0C3.32129 0 0 3.32129 0 7.40332ZM1.58643 7.40332C1.58643 4.19336 4.19336 1.58643 7.40332 1.58643C10.6133 1.58643 13.2202 4.19336 13.2202 7.40332C13.2202 10.6133 10.6133 13.2202 7.40332 13.2202C4.19336 13.2202 1.58643 10.6133 1.58643 7.40332Z" fill="white"/>
</svg>
