<svg width="24" height="23" viewBox="0 0 24 23" fill="none" xmlns="http://www.w3.org/2000/svg">
<path d="M1.49365 21.9893C1.86426 21.9893 2.20117 21.8657 2.63916 21.6187L8.11963 18.6538L14.1055 22.0117C14.5771 22.2588 15.0601 22.3936 15.5317 22.3936C15.9922 22.3936 16.4526 22.27 16.8569 22.0342L22.4722 18.8672C23.2358 18.4404 23.5728 17.834 23.5728 16.9805V1.89795C23.5728 0.95459 23.0112 0.393066 22.0791 0.393066C21.7085 0.393066 21.3828 0.527832 20.9336 0.774902L15.2397 3.94189L9.33252 0.359375C8.91699 0.123535 8.45654 0 7.99609 0C7.53564 0 7.08643 0.112305 6.68213 0.348145L1.11182 3.51514C0.336914 3.94189 0 4.53711 0 5.39062V20.4956C0 21.439 0.561523 21.9893 1.49365 21.9893ZM7.13135 16.666L2.48193 19.2266C2.40332 19.2603 2.33594 19.2939 2.27979 19.2939C2.15625 19.2939 2.07764 19.1929 2.07764 19.0469V5.96338C2.07764 5.64893 2.18994 5.44678 2.49316 5.27832L6.77197 2.79639C6.89551 2.71777 7.00781 2.66162 7.13135 2.59424V16.666ZM9.24268 16.7334V2.86377C9.35498 2.91992 9.48975 2.9873 9.60205 3.05469L14.3301 5.90723V19.5747C14.1841 19.4961 14.0269 19.4175 13.8696 19.3389L9.24268 16.7334ZM16.4414 19.7432V5.71631L21.1021 3.17822C21.1582 3.14453 21.2256 3.11084 21.2817 3.11084C21.4053 3.11084 21.4951 3.21191 21.4951 3.34668V16.3853C21.4951 16.6997 21.3828 16.9019 21.0908 17.0703L16.958 19.4624C16.7896 19.5635 16.6099 19.6646 16.4414 19.7432Z" fill="white"/>
</svg>
