<svg width="25" height="25" viewBox="0 0 25 25" fill="none" xmlns="http://www.w3.org/2000/svg">
<path d="M12.1055 24.2109C18.7266 24.2109 24.2109 18.7383 24.2109 12.1055C24.2109 5.48438 18.7266 0 12.0938 0C5.47266 0 0 5.48438 0 12.1055C0 18.7383 5.48438 24.2109 12.1055 24.2109ZM12.1055 21.832C6.71484 21.832 2.39062 17.4961 2.39062 12.1055C2.39062 6.71484 6.70312 2.39062 12.0938 2.39062C17.4844 2.39062 21.8203 6.71484 21.832 12.1055C21.832 17.4961 17.4961 21.832 12.1055 21.832ZM6.64453 13.8633C7.61719 13.8633 8.41406 13.0781 8.41406 12.0938C8.41406 11.1211 7.60547 10.3359 6.64453 10.3359C5.67188 10.3359 4.875 11.1211 4.875 12.0938C4.875 13.0781 5.67188 13.8633 6.64453 13.8633ZM12.0938 13.8633C13.0664 13.8633 13.8516 13.0781 13.8516 12.0938C13.8516 11.1211 13.0664 10.3359 12.0938 10.3359C11.1211 10.3359 10.3242 11.1211 10.3242 12.0938C10.3242 13.0781 11.1211 13.8633 12.0938 13.8633ZM17.5312 13.8633C18.5156 13.8633 19.3008 13.0781 19.3008 12.0938C19.3008 11.1211 18.5156 10.3359 17.5312 10.3359C16.5586 10.3359 15.7734 11.1211 15.7734 12.0938C15.7734 13.0781 16.5586 13.8633 17.5312 13.8633Z" fill="white"/>
</svg>
