<svg width="15" height="14" viewBox="0 0 15 14" fill="none" xmlns="http://www.w3.org/2000/svg">
<path d="M2.40234 13.6743H12.4805C14.0625 13.6743 14.8828 12.854 14.8828 11.2939V2.38037C14.8828 0.812988 14.0625 0 12.4805 0H2.40234C0.820312 0 0 0.812988 0 2.38037V11.2939C0 12.8613 0.820312 13.6743 2.40234 13.6743ZM2.38037 12.2388C1.77246 12.2388 1.43555 11.9165 1.43555 11.2793V4.51172C1.43555 3.86719 1.77246 3.55225 2.38037 3.55225H12.4878C13.103 3.55225 13.4473 3.86719 13.4473 4.51172V11.2793C13.4473 11.9165 13.103 12.2388 12.4878 12.2388H2.38037ZM6.02783 6.09375H6.45996C6.72363 6.09375 6.81152 6.01318 6.81152 5.74951V5.32471C6.81152 5.06104 6.72363 4.98047 6.45996 4.98047H6.02783C5.77148 4.98047 5.68359 5.06104 5.68359 5.32471V5.74951C5.68359 6.01318 5.77148 6.09375 6.02783 6.09375ZM8.43018 6.09375H8.85498C9.11865 6.09375 9.20654 6.01318 9.20654 5.74951V5.32471C9.20654 5.06104 9.11865 4.98047 8.85498 4.98047H8.43018C8.1665 4.98047 8.07861 5.06104 8.07861 5.32471V5.74951C8.07861 6.01318 8.1665 6.09375 8.43018 6.09375ZM10.8252 6.09375H11.25C11.5137 6.09375 11.6016 6.01318 11.6016 5.74951V5.32471C11.6016 5.06104 11.5137 4.98047 11.25 4.98047H10.8252C10.5615 4.98047 10.4736 5.06104 10.4736 5.32471V5.74951C10.4736 6.01318 10.5615 6.09375 10.8252 6.09375ZM3.63281 8.45215H4.06494C4.32861 8.45215 4.4165 8.37158 4.4165 8.10791V7.68311C4.4165 7.41943 4.32861 7.33887 4.06494 7.33887H3.63281C3.37646 7.33887 3.28857 7.41943 3.28857 7.68311V8.10791C3.28857 8.37158 3.37646 8.45215 3.63281 8.45215ZM6.02783 8.45215H6.45996C6.72363 8.45215 6.81152 8.37158 6.81152 8.10791V7.68311C6.81152 7.41943 6.72363 7.33887 6.45996 7.33887H6.02783C5.77148 7.33887 5.68359 7.41943 5.68359 7.68311V8.10791C5.68359 8.37158 5.77148 8.45215 6.02783 8.45215ZM8.43018 8.45215H8.85498C9.11865 8.45215 9.20654 8.37158 9.20654 8.10791V7.68311C9.20654 7.41943 9.11865 7.33887 8.85498 7.33887H8.43018C8.1665 7.33887 8.07861 7.41943 8.07861 7.68311V8.10791C8.07861 8.37158 8.1665 8.45215 8.43018 8.45215ZM10.8252 8.45215H11.25C11.5137 8.45215 11.6016 8.37158 11.6016 8.10791V7.68311C11.6016 7.41943 11.5137 7.33887 11.25 7.33887H10.8252C10.5615 7.33887 10.4736 7.41943 10.4736 7.68311V8.10791C10.4736 8.37158 10.5615 8.45215 10.8252 8.45215ZM3.63281 10.8105H4.06494C4.32861 10.8105 4.4165 10.73 4.4165 10.4663V10.0415C4.4165 9.77783 4.32861 9.69727 4.06494 9.69727H3.63281C3.37646 9.69727 3.28857 9.77783 3.28857 10.0415V10.4663C3.28857 10.73 3.37646 10.8105 3.63281 10.8105ZM6.02783 10.8105H6.45996C6.72363 10.8105 6.81152 10.73 6.81152 10.4663V10.0415C6.81152 9.77783 6.72363 9.69727 6.45996 9.69727H6.02783C5.77148 9.69727 5.68359 9.77783 5.68359 10.0415V10.4663C5.68359 10.73 5.77148 10.8105 6.02783 10.8105ZM8.43018 10.8105H8.85498C9.11865 10.8105 9.20654 10.73 9.20654 10.4663V10.0415C9.20654 9.77783 9.11865 9.69727 8.85498 9.69727H8.43018C8.1665 9.69727 8.07861 9.77783 8.07861 10.0415V10.4663C8.07861 10.73 8.1665 10.8105 8.43018 10.8105Z" fill="white"/>
</svg>
