<svg width="10" height="17" viewBox="0 0 10 17" fill="none" xmlns="http://www.w3.org/2000/svg">
<path opacity="0.3" d="M4.00635 16.4941C6.21094 16.4941 7.99805 14.7217 7.99805 12.5171C7.99805 11.3818 7.54395 10.3857 6.66504 9.58008C6.51123 9.44092 6.47461 9.35303 6.47461 9.14795L6.48926 2.71729C6.48926 1.09131 5.48584 0 4.00635 0C2.51953 0 1.51611 1.09131 1.51611 2.71729L1.52344 9.14795C1.52344 9.35303 1.49414 9.44092 1.33301 9.58008C0.454102 10.3784 0 11.3818 0 12.5171C0 14.7217 1.78711 16.4941 4.00635 16.4941ZM4.00635 15.2417C2.49023 15.2417 1.26709 14.0112 1.26709 12.5024C1.26709 11.5723 1.69922 10.7593 2.47559 10.2466C2.69531 10.0928 2.7832 9.96094 2.7832 9.66064V2.76855C2.7832 1.85303 3.28125 1.26709 4.00635 1.26709C4.72412 1.26709 5.21484 1.85303 5.21484 2.76855V9.66064C5.21484 9.96094 5.30273 10.0928 5.52979 10.2466C6.29883 10.7593 6.73828 11.5723 6.73828 12.5024C6.73828 14.0112 5.51514 15.2417 4.00635 15.2417ZM7.87354 2.84912H9.48486C9.75586 2.84912 9.93896 2.64404 9.93896 2.40234C9.93896 2.16064 9.75586 1.95557 9.48486 1.95557H7.87354C7.60254 1.95557 7.41943 2.16064 7.41943 2.40234C7.41943 2.64404 7.60254 2.84912 7.87354 2.84912ZM7.87354 4.88525H9.48486C9.75586 4.88525 9.93896 4.68018 9.93896 4.43848C9.93896 4.19678 9.75586 3.9917 9.48486 3.9917H7.87354C7.60254 3.9917 7.41943 4.19678 7.41943 4.43848C7.41943 4.68018 7.60254 4.88525 7.87354 4.88525ZM3.99902 14.2529C4.97314 14.2529 5.75684 13.4692 5.75684 12.4951C5.75684 11.814 5.37598 11.2573 4.81201 10.957C4.57764 10.8252 4.50439 10.7373 4.50439 10.3857V6.61377C4.50439 6.25488 4.27734 6.02783 3.99902 6.02783C3.7207 6.02783 3.50098 6.25488 3.50098 6.61377V10.3857C3.50098 10.7373 3.42041 10.8252 3.18604 10.957C2.62939 11.2573 2.24854 11.814 2.24854 12.4951C2.24854 13.4692 3.03223 14.2529 3.99902 14.2529ZM7.87354 6.92139H9.48486C9.75586 6.92139 9.93896 6.71631 9.93896 6.47461C9.93896 6.23291 9.75586 6.02783 9.48486 6.02783H7.87354C7.60254 6.02783 7.41943 6.23291 7.41943 6.47461C7.41943 6.71631 7.60254 6.92139 7.87354 6.92139ZM7.87354 8.96484H9.48486C9.75586 8.96484 9.93896 8.75977 9.93896 8.51807C9.93896 8.27637 9.75586 8.07129 9.48486 8.07129H7.87354C7.60254 8.07129 7.41943 8.27637 7.41943 8.51807C7.41943 8.75977 7.60254 8.96484 7.87354 8.96484Z" fill="white"/>
</svg>
