<svg width="16" height="14" viewBox="0 0 16 14" fill="none" xmlns="http://www.w3.org/2000/svg">
<path opacity="0.3" d="M0.805664 4.51172C1.86035 4.18213 2.95166 4.01367 3.9917 4.01367C5.33203 4.01367 6.3208 4.22607 7.59521 4.22607C8.93555 4.22607 9.79248 3.31055 9.79248 2.10938C9.79248 0.878906 8.8623 0 7.69043 0C6.84814 0 6.09375 0.52002 5.77148 1.23047C5.63232 1.50146 5.69092 1.81641 5.96924 1.97021C6.23291 2.10938 6.5625 2.02148 6.73828 1.69189C6.89209 1.34766 7.26562 1.07666 7.69043 1.07666C8.26904 1.07666 8.71582 1.47217 8.71582 2.10938C8.71582 2.73926 8.27637 3.14941 7.59521 3.14941C6.39404 3.14941 5.3833 2.93701 3.9917 2.93701C2.79785 2.93701 1.58203 3.14209 0.476074 3.479C0.13916 3.58154 0 3.87451 0.0805664 4.16748C0.161133 4.45312 0.439453 4.61426 0.805664 4.51172ZM12.29 8.02002C14.0259 8.02002 15.2563 6.90674 15.2563 5.36133C15.2563 3.83789 14.0918 2.71729 12.6196 2.71729C11.3159 2.71729 10.3052 3.61084 10.0928 4.80469C10.0269 5.13428 10.1953 5.41992 10.4883 5.47852C10.7886 5.54443 11.0669 5.36865 11.1548 4.99512C11.2866 4.28467 11.9019 3.79395 12.6196 3.79395C13.4912 3.79395 14.1797 4.43848 14.1797 5.36133C14.1797 6.29883 13.4399 6.94336 12.29 6.94336C10.0562 6.94336 7.63184 5.66895 4.69482 5.66895C3.17871 5.66895 1.79443 5.91064 0.476074 6.36475C0.146484 6.48193 0 6.76758 0.0805664 7.05322C0.168457 7.34619 0.454102 7.51465 0.805664 7.39746C2.01416 6.95068 3.25928 6.75293 4.69482 6.75293C7.60254 6.75293 9.79248 8.02002 12.29 8.02002ZM7.60254 13.2568C8.76709 13.2568 9.66797 12.3853 9.66797 11.1621C9.66797 9.38965 7.85889 8.4082 4.56299 8.4082C3.20801 8.4082 1.72852 8.66455 0.476074 9.09668C0.146484 9.20654 0 9.49951 0.0805664 9.78516C0.168457 10.0781 0.454102 10.2466 0.805664 10.1221C1.97021 9.71191 3.25928 9.48486 4.56299 9.48486C7.17773 9.48486 8.58398 10.1367 8.58398 11.1621C8.58398 11.792 8.15186 12.1729 7.60254 12.1729C7.0752 12.1729 6.73828 11.8213 6.62842 11.2573C6.55518 10.957 6.31348 10.7446 5.97656 10.7959C5.625 10.8472 5.48584 11.1621 5.55908 11.4917C5.74219 12.4805 6.51123 13.2568 7.60254 13.2568Z" fill="white"/>
</svg>
